<svg width="100" height="100" viewBox="0 0 100 100" fill="none" xmlns="http://www.w3.org/2000/svg">
<rect x="0.5" y="0.5" width="99" height="99" rx="49.5" fill="white" stroke="url(#paint0_linear_1_1078)"/>
<path d="M35.0317 58.2421C32.9265 52.1789 33.7265 46.6 37.6423 41.2316C36.7581 41.5263 36.0844 41.7368 35.4107 41.9474C33.7054 42.4947 32.1686 41.9053 31.4949 40.4526C30.8002 38.9789 31.3054 37.421 32.8212 36.4737C37.5791 33.5684 42.2949 30.621 47.116 27.821C48.2107 27.1895 49.6212 26.8947 50.9054 26.8737C56.5896 26.7684 62.2738 26.8316 67.9581 26.8316C68.6317 26.8316 69.0528 26.6631 69.537 26.1158C70.0212 25.5684 70.8423 25.1684 71.5791 25.0631C72.737 24.8947 73.9581 25 75.1581 25.021C76.7581 25.0631 77.8949 26.1368 77.8949 27.7368C77.916 33.3789 77.916 39.021 77.8949 44.6842C77.8949 46.3053 76.8423 47.4 75.2212 47.4842C74.0212 47.5474 72.8212 47.5895 71.6423 47.4631C70.9896 47.4 70.1265 47.1474 69.7896 46.6631C69.0317 45.5263 68.0633 45.6105 66.8844 45.7368C67.8949 48.621 68.2949 51.5263 67.8317 54.5368C67.3686 57.5053 66.2107 60.1579 64.2317 62.7474C65.1791 62.4316 65.8528 62.2 66.5475 61.9895C68.2528 61.4631 69.7896 62.0737 70.4423 63.5474C71.0949 65 70.6107 66.5368 69.137 67.4421C64.3581 70.3684 59.6002 73.3368 54.7581 76.1579C53.6633 76.7895 52.2317 77.0631 50.9686 77.0842C45.2844 77.1895 39.6002 77.1263 33.916 77.1263C33.3054 77.1263 32.8844 77.2737 32.4002 77.7789C31.8738 78.3263 31.0317 78.7684 30.2738 78.8737C29.116 79.0631 27.8949 78.9579 26.6949 78.9158C25.137 78.8737 24.0212 77.8 24.0002 76.2631C23.9791 70.5368 23.9791 64.8316 24.0002 59.1053C24.0002 57.6316 25.0949 56.5579 26.6107 56.4737C27.8317 56.4105 29.0738 56.3684 30.2949 56.4947C30.9475 56.5579 31.8107 56.8316 32.1265 57.3158C32.8633 58.4737 33.8317 58.3474 35.0317 58.2421ZM49.0738 37.4C46.8423 38.1368 44.6738 38.8316 42.5265 39.5895C41.916 39.8 41.3054 40.1368 40.8212 40.5789C36.8002 44.2631 35.1581 48.8526 35.8528 54.221C36.1686 56.7263 36.8212 59.1263 39.537 60.2C39.6002 60.221 39.6633 60.2842 39.7054 60.3263C41.1791 61.4631 42.8212 62.0526 44.6949 61.8842C45.3475 61.821 46.0212 61.8842 46.6949 61.8842C50.4844 61.8842 51.8528 62.8947 52.8844 66.5789C55.3054 65.7789 57.7265 64.9579 60.1265 64.1368C60.3791 64.0526 60.5896 63.821 60.8002 63.6526C65.9581 59.4 67.6844 51.8842 64.8844 45.8C64.7581 45.5263 64.6107 45.2105 64.3791 45.0421C61.7686 43.2526 59.137 41.4842 55.6844 42.1158C55.3686 42.1789 55.0528 42.1158 54.737 42.1158C51.4317 42.1158 49.7686 40.7684 49.0738 37.4ZM68.8212 28.7053C68.6317 28.6842 68.4844 28.6421 68.3581 28.6421C62.3581 28.6421 56.3581 28.621 50.3581 28.6631C49.6844 28.6631 48.9265 28.8526 48.3581 29.1895C43.4528 32.1158 38.5686 35.0842 33.7265 38.0947C33.3896 38.3053 33.0949 38.8737 33.0738 39.2737C33.0317 40.1368 33.8528 40.5789 34.8212 40.2421C38.0844 39.1684 41.3896 38.221 44.5686 36.9579C48.6949 35.3368 52.8844 34.5579 57.2844 34.8947C58.8002 35.021 60.2107 34.5789 61.4528 33.7158C62.0002 33.3368 62.5686 33.1474 62.9896 33.821C63.3896 34.4526 62.9475 34.8526 62.4633 35.2105C60.9686 36.2421 59.3054 36.7053 57.516 36.7053C55.7686 36.7053 54.0002 36.7053 52.2528 36.7053C51.0949 36.7053 50.6738 37.3158 51.137 38.3895C51.7054 39.6737 52.8002 40.2631 54.1475 40.3053C55.3054 40.3474 56.4633 40.3684 57.6212 40.3053C59.5581 40.221 61.2844 40.7684 62.8212 41.9263C63.3054 42.2842 63.7896 42.6 64.316 42.9158C65.6844 43.7579 67.1581 44.0526 68.8002 43.8421C68.8212 38.8105 68.8212 33.8 68.8212 28.7053ZM33.0528 75.3158C33.3265 75.3368 33.4528 75.3579 33.6002 75.3579C39.537 75.3579 45.4528 75.4 51.3896 75.3158C52.2738 75.2947 53.2633 74.9789 54.0423 74.5158C58.6738 71.7579 63.2633 68.9158 67.8949 66.1368C68.6317 65.6947 69.1791 65.1684 68.7581 64.2842C68.3581 63.4421 67.6212 63.5474 66.8423 63.821C63.6633 64.8947 60.4212 65.821 57.2844 67.0631C53.2002 68.6842 49.0528 69.4631 44.6738 69.1053C43.116 68.9789 41.6844 69.4 40.4002 70.3053C39.8738 70.6631 39.3475 70.8105 38.9265 70.2C38.5054 69.5684 38.8844 69.1684 39.3896 68.8105C40.8633 67.7579 42.5265 67.2947 44.337 67.2947C46.1686 67.2947 47.9791 67.2947 49.8107 67.2947C50.6949 67.2947 51.137 66.7895 50.8212 65.9474C50.6107 65.3789 50.2528 64.7052 49.7686 64.4526C48.9265 64.0316 47.916 63.6737 47.0107 63.7368C43.537 63.9263 40.3581 63.4631 37.5581 61.1263C36.316 60.0947 34.6949 59.9263 33.0528 60.1579C33.0528 65.2316 33.0528 70.221 33.0528 75.3158ZM76.1054 36.4105C76.1054 33.6737 76.0844 30.9368 76.1265 28.2C76.1475 27.2105 75.7475 26.7895 74.7581 26.8316C73.8107 26.8737 72.8633 26.8526 71.916 26.8316C71.1581 26.8316 70.7581 27.1474 70.7581 27.9684C70.7581 33.5053 70.7581 39.0421 70.7581 44.5789C70.7581 45.3158 71.116 45.6737 71.8528 45.6737C72.7581 45.6737 73.6844 45.6737 74.5896 45.6737C75.9581 45.6737 76.1265 45.5053 76.1265 44.1789C76.1054 41.6105 76.1054 39.021 76.1054 36.4105ZM31.1791 67.6737C31.1791 64.9789 31.1581 62.2842 31.1791 59.5684C31.1791 58.7053 30.8844 58.2631 29.9581 58.2842C28.9686 58.3053 28.0002 58.3053 27.0107 58.2842C26.2317 58.2631 25.8107 58.5789 25.8107 59.3789C25.8107 64.9158 25.8107 70.4526 25.8107 75.9895C25.8107 76.7895 26.2107 77.1263 26.9896 77.1263C27.937 77.1053 28.8844 77.1053 29.8317 77.1263C30.8212 77.1684 31.2212 76.7684 31.2002 75.7579C31.1581 73.0842 31.1791 70.3684 31.1791 67.6737Z" fill="url(#paint1_linear_1_1078)"/>
<path d="M50.0423 57.3158C50.0423 55.7368 50.0423 54.3474 50.0423 52.9158C47.8318 52.3474 45.6423 51.5684 45.6212 48.8737C45.6002 46.1789 47.7897 45.3789 50.0002 44.8105C50.2107 44.1368 49.8107 43.021 51.0107 43.0631C52.1055 43.0842 51.7897 44.1158 51.8949 44.7684C52.6318 45.021 53.3476 45.2105 54.0002 45.5263C55.2212 46.1158 56.1055 47.021 56.316 48.4526C56.4002 49.0631 56.316 49.6105 55.5791 49.7158C54.9265 49.8 54.6739 49.4 54.5265 48.8105C54.2528 47.6105 53.3686 46.9579 51.8739 46.8526C51.8739 48.2421 51.8739 49.6316 51.8739 51.1052C54.0633 51.6947 56.316 52.4737 56.2949 55.2105C56.2739 57.8842 54.0844 58.6842 51.8949 59.2316C51.8739 59.4421 51.8528 59.5684 51.8528 59.7158C51.8739 60.3684 51.7686 61 50.9686 61C50.1686 61.021 50.1265 60.3895 50.0423 59.7579C50.0002 59.4842 49.5581 59.2316 49.2634 59.0421C48.2739 58.4105 47.2002 57.9263 46.316 57.1684C45.8739 56.7895 45.7055 55.9895 45.6423 55.3579C45.6002 55.0421 46.0634 54.6842 46.316 54.3473C46.6739 54.6 47.2844 54.8105 47.3476 55.1052C47.6002 56.5579 48.716 56.9158 50.0423 57.3158ZM50.0423 46.7684C48.316 47.0631 47.3055 47.9474 47.3897 48.9579C47.4739 49.9684 48.737 50.8526 50.0423 50.8105C50.0423 49.5052 50.0423 48.1789 50.0423 46.7684ZM51.8949 57.1684C53.4318 57.021 54.5686 56.1158 54.5476 55.0842C54.5055 54.0737 53.3476 53.2105 51.8949 53.1263C51.8949 54.4737 51.8949 55.821 51.8949 57.1684Z" fill="url(#paint2_linear_1_1078)"/>
<path d="M64.6737 51.9895C64.421 57.6947 60.6526 63.0421 55.4947 64.6421C55.1158 64.7474 54.4 64.5579 54.2105 64.2631C53.8315 63.6947 54.2526 63.2316 54.8631 63C55.0526 62.9368 55.2631 62.8526 55.4526 62.7684C58.6526 61.4 60.8421 59.0631 62 55.7789C62.8631 53.2947 62.8421 50.7684 62.021 48.2631C61.9368 48.0316 61.7473 47.7789 61.7894 47.5895C61.8526 47.1684 61.9368 46.5579 62.2316 46.3684C62.7368 46.0316 63.2842 46.3263 63.4526 46.9368C63.8737 48.6 64.2526 50.3052 64.6737 51.9895Z" fill="url(#paint3_linear_1_1078)"/>
<path d="M37.2637 52.0947C37.4742 46.5158 40.8216 41.5684 45.9374 39.5053C46.19 39.4 46.4847 39.1895 46.7163 39.2316C47.0742 39.2947 47.6426 39.4842 47.7058 39.7368C47.79 40.0737 47.5374 40.5368 47.3058 40.8526C47.1795 41.0421 46.8216 41.0842 46.5479 41.1895C40.7795 43.5895 37.8953 49.9474 39.9374 55.8421C40.0005 56.0105 40.1268 56.1789 40.1058 56.3263C40.0005 56.7895 39.9795 57.4421 39.6847 57.6316C39.0953 57.9895 38.611 57.5895 38.4426 56.9579C38.0216 55.3368 37.6426 53.7158 37.2637 52.0947Z" fill="url(#paint4_linear_1_1078)"/>
<defs>
<linearGradient id="paint0_linear_1_1078" x1="9" y1="7.5" x2="100" y2="100" gradientUnits="userSpaceOnUse">
<stop stop-color="#812595"/>
<stop offset="1" stop-color="#F17444"/>
</linearGradient>
<linearGradient id="paint1_linear_1_1078" x1="26.4774" y1="28.4701" x2="85.9924" y2="87.8044" gradientUnits="userSpaceOnUse">
<stop stop-color="#812595"/>
<stop offset="1" stop-color="#F17444"/>
</linearGradient>
<linearGradient id="paint2_linear_1_1078" x1="46.1167" y1="44.2247" x2="63.5133" y2="54.6073" gradientUnits="userSpaceOnUse">
<stop stop-color="#812595"/>
<stop offset="1" stop-color="#F17444"/>
</linearGradient>
<linearGradient id="paint3_linear_1_1078" x1="54.5568" y1="47.4225" x2="72.11" y2="57.5028" gradientUnits="userSpaceOnUse">
<stop stop-color="#812595"/>
<stop offset="1" stop-color="#F17444"/>
</linearGradient>
<linearGradient id="paint4_linear_1_1078" x1="37.7472" y1="40.4278" x2="55.2184" y2="50.2694" gradientUnits="userSpaceOnUse">
<stop stop-color="#812595"/>
<stop offset="1" stop-color="#F17444"/>
</linearGradient>
</defs>
</svg>
