<svg width="66" height="60" viewBox="0 0 66 60" fill="none" xmlns="http://www.w3.org/2000/svg">
<path d="M54.8615 26.3125C55.761 27.1606 56.5064 27.8545 57.226 28.5741C61.0811 32.4293 61.1582 37.6722 57.3545 41.6044C55.1442 43.8918 52.8825 46.1021 50.6466 48.338C49.67 49.3147 48.719 50.2656 47.7424 51.2422C46.7401 52.2445 45.712 53.1184 45.7377 54.8403C45.7634 56.3053 44.5555 57.5132 43.1163 57.5646C41.4457 57.616 40.2635 58.5669 38.927 59.1837C36.4084 60.3403 35.406 60.2889 33.3757 58.4641C33.2472 58.3613 33.1187 58.2585 32.9388 58.13C32.5532 58.4641 32.2191 58.7725 31.8593 59.0552C30.7028 59.9805 29.3921 60.2889 28.0042 59.6978C26.9505 59.2609 25.9996 58.5669 24.9715 58.0786C24.586 57.873 24.1234 57.7702 23.6865 57.7702C21.5276 57.6931 20.037 56.1511 19.9599 53.9922C19.9342 53.4782 19.7029 52.8357 19.3431 52.4759C15.8992 48.9548 12.4553 45.4338 8.90855 42.0156C5.15624 38.4175 4.30811 32.3265 8.90855 28.3171C9.57677 27.726 10.1936 27.0835 10.9646 26.3125C6.23567 25.1816 2.89457 22.6373 1.06982 18.3195C-0.369427 14.927 -0.343726 11.4831 1.06982 8.09065C3.8969 1.30565 11.7613 -1.80415 18.5463 1.07434C24.6631 3.67011 29.5977 12.1771 24.1748 20.9667C26.9505 21.8405 29.7262 22.7144 32.5018 23.5882C32.7589 23.6653 33.1187 23.6653 33.3757 23.5882C36.1514 22.7401 38.927 21.8662 41.7027 20.9667C36.1257 11.9458 41.4971 3.2332 47.7938 0.868732C54.9386 -1.80415 62.8287 1.89676 65.1932 9.14438C67.5063 16.2635 63.4199 24.4106 54.8615 26.3125ZM27.2332 41.9128C27.4388 42.067 27.5159 42.1184 27.593 42.1698C31.7565 46.3077 35.8943 50.4712 40.0322 54.609C40.3406 54.9174 40.6233 55.2258 40.9831 55.4828C41.8569 56.0997 42.7564 56.1511 43.5275 55.3543C44.2471 54.5833 44.17 53.7095 43.6046 52.8871C43.399 52.5787 43.0906 52.3216 42.8336 52.0389C39.9551 49.1605 37.0766 46.282 34.1981 43.4035C32.8103 42.0156 31.4224 40.6278 29.9061 39.1372C30.3944 38.6745 30.7799 38.3147 31.2425 37.8521C31.628 38.2376 31.9878 38.546 32.2962 38.8802C35.3546 41.9385 38.413 44.9969 41.4714 48.0553C42.4737 49.0319 43.656 49.1091 44.427 48.3123C45.1723 47.5156 45.0695 46.4362 44.1186 45.4595C40.0836 41.3988 36.0229 37.3381 31.9364 33.2774C31.6794 33.0204 31.2168 32.7891 30.857 32.7891C27.3103 32.6863 25.3827 30.8615 25.3056 27.3148C25.3056 26.8522 25.7939 26.1326 26.2309 25.927C27.2589 25.4387 28.364 25.1816 29.7776 24.719C27.5159 23.9994 25.5883 23.3569 23.6094 22.8172C23.1468 22.6887 22.4271 22.8429 22.0673 23.1513C19.7543 25.0788 17.1585 26.2097 14.1515 26.4667C13.7146 26.4924 13.2263 26.698 12.9179 26.9807C11.6842 28.1629 10.3735 29.2938 9.31976 30.6302C8.57444 31.5554 7.98332 32.7634 7.75201 33.9199C7.2123 36.4643 8.16323 38.6231 9.96228 40.4479C15.2566 45.7423 20.551 51.0623 25.8453 56.3567C26.0253 56.5366 26.2052 56.7422 26.4108 56.8707C27.2846 57.4875 28.1841 57.5903 28.9808 56.8193C29.7776 56.0226 29.7262 55.0973 29.0579 54.2749C28.4668 53.5553 27.7729 52.9128 27.1047 52.2445C25.4341 50.5483 23.7379 48.8777 22.1958 47.3614C22.6071 46.7446 22.8898 46.282 23.2239 45.7937C23.7122 46.282 24.072 46.5904 24.4061 46.9245C27.6444 50.1628 30.8827 53.4011 34.121 56.6394C35.7401 58.2585 36.9224 58.5669 37.8219 57.6417C38.7214 56.6908 38.413 55.6627 36.7168 53.9665C34.2238 51.4735 31.7565 49.0062 29.2636 46.5133C28.1841 45.4338 27.079 44.3544 26.051 43.3264C26.4879 42.761 26.8477 42.3498 27.2332 41.9128ZM44.7868 51.2679C48.719 47.4128 52.7026 43.7119 56.455 39.7797C59.1278 36.9783 58.8451 32.9176 56.1465 30.1676C55.1185 29.1396 54.1162 28.0601 53.0368 27.1092C52.6769 26.7751 52.1115 26.6209 51.5975 26.441C49.67 25.7985 47.3055 25.6957 45.8662 24.4877C43.5018 22.5088 41.3943 22.6373 38.9527 23.7938C38.8499 23.8452 38.6957 23.8452 38.5929 23.8966C34.8149 25.1045 31.0369 26.2868 27.2846 27.469C27.2332 29.6536 28.4668 30.9129 30.4972 30.8358C31.7051 30.7844 32.8874 30.5788 34.0696 30.5531C34.4294 30.5531 34.9177 30.8101 35.0976 31.0928C35.2261 31.3241 35.0462 31.7867 34.9177 32.1209C34.8149 32.3779 34.5579 32.5578 34.3009 32.8405C34.635 33.2003 34.9177 33.5087 35.2004 33.8171C38.5929 37.2096 41.9854 40.5764 45.3522 43.9946C47.5625 46.2563 47.177 48.9034 44.4527 50.4455C44.3499 50.4969 44.2985 50.6254 44.1957 50.7282C44.4784 50.9852 44.684 51.1651 44.7868 51.2679ZM13.1749 24.6162C19.4459 24.6419 24.586 19.5789 24.6631 13.3336C24.7402 7.06262 19.5744 1.84536 13.2777 1.81966C7.05809 1.81966 1.89224 6.93411 1.86654 13.1794C1.84084 19.399 6.95529 24.5648 13.1749 24.6162ZM52.4713 24.6162C58.768 24.6676 63.9596 19.5275 63.9853 13.2308C64.011 7.01121 58.8965 1.87106 52.6512 1.81966C46.4317 1.76826 41.2658 6.88271 41.2144 13.128C41.1373 19.3733 46.2518 24.5648 52.4713 24.6162Z" fill="url(#paint0_linear_1_1121)"/>
<path d="M13.149 21.2494C11.4013 21.2494 9.65368 21.2237 7.88033 21.2494C6.9294 21.2751 6.44108 20.941 6.46678 19.913C6.49249 18.7051 6.44108 17.5228 6.49249 16.3149C6.54389 14.9014 7.1607 13.7448 8.42004 13.0509C9.39667 12.5112 10.3219 12.2799 11.2728 13.3079C12.2752 14.413 13.8686 14.3616 14.9994 13.4364C16.3616 12.3056 17.8522 12.357 18.8803 13.8219C19.4714 14.67 19.677 15.8266 19.8569 16.8803C20.0111 17.8826 19.8826 18.9364 19.8826 19.9644C19.9083 20.8382 19.5228 21.198 18.6489 21.198C16.8242 21.2494 14.9994 21.2494 13.149 21.2494ZM18.0321 19.2448C18.0321 18.2425 18.0835 17.2658 18.0321 16.2892C17.9293 14.85 17.0298 14.4387 15.8733 15.2098C14.2027 16.3406 12.1724 16.3149 10.4761 15.107C9.55088 14.4644 8.72845 14.6958 8.54855 15.8009C8.34294 16.9574 8.47144 18.1397 8.47144 19.3733C11.5041 19.3733 14.4083 19.3733 17.3125 19.3733C17.5181 19.3733 17.7237 19.2962 18.0321 19.2448Z" fill="url(#paint1_linear_1_1121)"/>
<path d="M17.2353 9.22147C17.2353 11.4574 15.3592 13.3079 13.1489 13.2565C10.9644 13.2308 9.19101 11.4317 9.16531 9.22147C9.13961 6.9855 10.9644 5.10934 13.2003 5.10934C15.4106 5.13505 17.261 6.9855 17.2353 9.22147ZM13.1746 7.0369C11.941 7.0369 11.0158 8.01353 11.0415 9.24717C11.0672 10.4294 11.9924 11.3546 13.1489 11.3546C14.3569 11.3803 15.3849 10.4037 15.3849 9.19577C15.4106 8.01353 14.3826 7.0112 13.1746 7.0369Z" fill="url(#paint2_linear_1_1121)"/>
<path d="M52.4712 21.2494C50.7236 21.2494 48.9759 21.2237 47.2026 21.2494C46.2517 21.2751 45.7633 20.941 45.7891 19.913C45.8148 18.7051 45.7634 17.5228 45.8148 16.3149C45.8662 14.85 46.5344 13.6934 47.8708 12.9995C48.8474 12.5112 49.7213 12.3313 50.6208 13.3336C51.6231 14.4387 53.2166 14.413 54.3217 13.4878C55.6581 12.3827 57.046 12.3827 58.1254 13.7705C58.6651 14.4644 59.0249 15.4154 59.1534 16.2892C59.3334 17.4714 59.1791 18.6794 59.2048 19.8873C59.2562 20.8896 58.845 21.2751 57.8427 21.2751C56.0694 21.2237 54.2703 21.2494 52.4712 21.2494ZM57.3287 19.3219C57.3287 18.191 57.4058 17.1373 57.303 16.135C57.1745 14.85 56.275 14.4644 55.2212 15.1841C53.5507 16.3406 51.4946 16.3406 49.8241 15.1841C48.796 14.4644 47.9479 14.7471 47.768 16.0065C47.6138 17.0602 47.7423 18.1911 47.7423 19.3476C50.9549 19.3219 54.0647 19.3219 57.3287 19.3219Z" fill="url(#paint3_linear_1_1121)"/>
<path d="M56.583 9.1444C56.6087 11.3804 54.7583 13.2565 52.548 13.2565C50.3378 13.2565 48.4873 11.4061 48.4873 9.1701C48.513 6.98553 50.2864 5.18648 52.4709 5.13508C54.6555 5.08368 56.5573 6.93413 56.583 9.1444ZM52.4709 7.03694C51.2373 7.06264 50.3121 8.03926 50.3635 9.2986C50.4149 10.4808 51.3401 11.3804 52.5223 11.3804C53.7303 11.3804 54.7326 10.378 54.7326 9.1958C54.7069 7.98786 53.6789 7.01123 52.4709 7.03694Z" fill="url(#paint4_linear_1_1121)"/>
<defs>
<linearGradient id="paint0_linear_1_1121" x1="4.5" y1="-1.5" x2="61" y2="59.5" gradientUnits="userSpaceOnUse">
<stop stop-color="#812595"/>
<stop offset="1" stop-color="#F17444"/>
</linearGradient>
<linearGradient id="paint1_linear_1_1121" x1="7.38636" y1="12.375" x2="14.8763" y2="23.8369" gradientUnits="userSpaceOnUse">
<stop stop-color="#812595"/>
<stop offset="1" stop-color="#F17444"/>
</linearGradient>
<linearGradient id="paint2_linear_1_1121" x1="9.71671" y1="4.90564" x2="17.4096" y2="12.4033" gradientUnits="userSpaceOnUse">
<stop stop-color="#812595"/>
<stop offset="1" stop-color="#F17444"/>
</linearGradient>
<linearGradient id="paint3_linear_1_1121" x1="46.7077" y1="12.3893" x2="54.2124" y2="23.8498" gradientUnits="userSpaceOnUse">
<stop stop-color="#812595"/>
<stop offset="1" stop-color="#F17444"/>
</linearGradient>
<linearGradient id="paint4_linear_1_1121" x1="49.0407" y1="4.93097" x2="56.7104" y2="12.4533" gradientUnits="userSpaceOnUse">
<stop stop-color="#812595"/>
<stop offset="1" stop-color="#F17444"/>
</linearGradient>
</defs>
</svg>
