<svg width="100" height="100" viewBox="0 0 100 100" fill="none" xmlns="http://www.w3.org/2000/svg">
<rect x="0.5" y="0.5" width="99" height="99" rx="49.5" fill="white" stroke="url(#paint0_linear_1_1052)"/>
<path d="M80.0366 42.758L80.0365 42.7579L80.032 42.7621C79.4253 43.331 78.5532 43.3314 77.8719 42.6901L77.8707 42.689C77.4793 42.3237 77.088 41.9393 76.6924 41.5507C76.0201 40.8902 75.3355 40.2176 74.6172 39.6062L74.3612 39.907L74.6172 39.6062C59.3708 26.6322 36.9382 27.6095 22.8889 41.8787L22.8875 41.8801C22.7227 42.0449 22.5482 42.2194 22.3727 42.4193C21.8987 42.9018 21.4248 43.1423 21.011 43.1917C20.6082 43.2397 20.2202 43.1128 19.8785 42.7711L19.8785 42.7711L19.8745 42.7671C19.5112 42.414 19.3714 42.0377 19.4048 41.6529C19.4395 41.2534 19.6668 40.7793 20.1716 40.2632C21.3536 39.0571 22.5499 37.8853 23.8376 36.8361L23.8387 36.8352C31.452 30.5865 40.1616 27.4728 50.6621 27.4C61.3866 27.5687 71.1267 31.6117 79.2012 39.6622C79.5151 39.9761 79.8164 40.2777 80.0933 40.6001C80.405 40.9975 80.5369 41.4009 80.5254 41.7597C80.514 42.1157 80.361 42.463 80.0366 42.758Z" fill="url(#paint1_linear_1_1052)" stroke="white" stroke-width="0.8"/>
<path d="M68.8012 51.1969L68.8001 51.1957C66.1745 48.3738 63.0797 46.2119 59.4938 44.7628C49.9127 40.8814 38.7133 43.2881 31.5883 50.7815L31.5882 50.7815L31.5822 50.7881C31.5289 50.8468 31.4775 50.9042 31.4276 50.96C31.2347 51.1758 31.0629 51.3679 30.8754 51.5213L30.8693 51.5262L30.8635 51.5314C30.1587 52.1556 29.264 52.1325 28.6795 51.548C28.0845 50.9531 28.0124 50.1157 28.6113 49.4981L28.6123 49.497C29.8436 48.2174 31.085 46.977 32.4404 45.907L32.4404 45.907L32.4429 45.9049C37.3893 41.9336 43.63 39.8286 51.433 39.8277C58.2573 39.9955 65.2882 42.9921 70.9964 49.0344C71.3428 49.404 71.5783 49.7432 71.6818 50.0828C71.78 50.4047 71.7697 50.7594 71.5578 51.1942C71.295 51.7184 70.8637 51.9673 70.3906 51.9811C69.9037 51.9952 69.3202 51.7591 68.8012 51.1969Z" fill="url(#paint2_linear_1_1052)" stroke="white" stroke-width="0.8"/>
<path d="M37.5133 60.4061L37.5138 60.4065C37.8372 60.7005 38.2047 60.8226 38.5667 60.8018C38.9314 60.7809 39.3203 60.6129 39.6718 60.2725C39.7385 60.2055 39.8036 60.126 39.8839 60.0272L39.8894 60.0204C39.9624 59.9305 40.0495 59.8234 40.1458 59.7261C45.5045 53.8022 54.4793 53.8307 59.8333 59.7815C59.9037 59.8591 59.9718 59.9445 60.0318 60.0201L60.0422 60.0331C60.1011 60.1074 60.1535 60.1733 60.2062 60.2336C60.262 60.2973 60.3085 60.3433 60.3482 60.3745C60.3673 60.3896 60.3821 60.399 60.3927 60.4046C60.3991 60.4081 60.4033 60.4098 60.4055 60.4106L37.5133 60.4061ZM37.5133 60.4061C36.9039 59.8538 36.8118 58.9812 37.3888 58.2432C39.4174 55.7201 41.9614 54 45.0553 53.0081C51.2378 51.0259 58.1267 52.9868 62.2271 57.9121L62.2351 57.9217L62.2437 57.9308C62.4153 58.1125 62.5535 58.3265 62.7052 58.5978C62.7574 58.6912 62.8144 58.7976 62.8758 58.9122C62.9432 59.0381 63.0159 59.1738 63.0934 59.3129C62.9884 59.4528 62.8873 59.598 62.7935 59.7325C62.7219 59.8352 62.6546 59.9317 62.5933 60.0149C62.3871 60.2947 62.218 60.4727 62.0449 60.5605C61.8968 60.6297 61.672 60.6472 61.3606 60.6079C61.1074 60.5759 60.8461 60.5143 60.5786 60.4513C60.5215 60.4378 60.4641 60.4242 60.4064 60.4109L37.5133 60.4061Z" fill="url(#paint3_linear_1_1052)" stroke="white" stroke-width="0.8"/>
<path d="M46.2039 68.3965L46.2039 68.3964C46.2258 66.2532 47.9004 64.6382 50.0751 64.6821C52.1523 64.7259 53.7672 66.3827 53.7453 68.4849L53.7453 68.4849C53.7234 70.6056 52.0471 72.2432 49.8739 72.1993C47.7968 72.1554 46.182 70.4986 46.2039 68.3965Z" fill="url(#paint4_linear_1_1052)" stroke="white" stroke-width="0.8"/>
<defs>
<linearGradient id="paint0_linear_1_1052" x1="9" y1="7.5" x2="100" y2="100" gradientUnits="userSpaceOnUse">
<stop stop-color="#812595"/>
<stop offset="1" stop-color="#F17444"/>
</linearGradient>
<linearGradient id="paint1_linear_1_1052" x1="25" y1="29.3664" x2="35.7409" y2="58.5448" gradientUnits="userSpaceOnUse">
<stop stop-color="#812595"/>
<stop offset="1" stop-color="#F17444"/>
</linearGradient>
<linearGradient id="paint2_linear_1_1052" x1="32.0925" y1="41.2759" x2="41.0385" y2="63.5597" gradientUnits="userSpaceOnUse">
<stop stop-color="#812595"/>
<stop offset="1" stop-color="#F17444"/>
</linearGradient>
<linearGradient id="paint3_linear_1_1052" x1="39.2158" y1="53.1786" x2="46.4695" y2="68.4016" gradientUnits="userSpaceOnUse">
<stop stop-color="#812595"/>
<stop offset="1" stop-color="#F17444"/>
</linearGradient>
<linearGradient id="paint4_linear_1_1052" x1="46.6119" y1="65.467" x2="54.5193" y2="71.2415" gradientUnits="userSpaceOnUse">
<stop stop-color="#812595"/>
<stop offset="1" stop-color="#F17444"/>
</linearGradient>
</defs>
</svg>
