<svg width="100" height="100" viewBox="0 0 100 100" fill="none" xmlns="http://www.w3.org/2000/svg">
<rect x="0.5" y="0.5" width="99" height="99" rx="49.5" fill="white" stroke="url(#paint0_linear_1_1062)"/>
<path d="M67.3739 45.4419C68.7258 45.5921 69.3481 46.4075 69.4554 47.8023C69.9275 47.8023 70.3352 47.8023 70.7429 47.8023C72.245 47.8238 72.8244 48.2744 73.1248 49.7336C74.1548 54.9909 75.1633 60.2482 76.1933 65.5056C76.4508 66.836 76.7083 68.1664 76.9873 69.4969C77.4165 71.7071 76.2792 73.1448 74.026 73.1448C68.082 73.1663 62.1595 73.1448 56.2155 73.1663C55.7434 73.1663 55.2713 73.4881 54.7992 73.6598C53.7049 74.0675 52.6534 74.6683 51.5375 74.84C49.1771 75.1834 46.8381 75.0975 44.8854 73.3379C44.6494 73.1233 44.1558 73.1448 43.7696 73.1448C37.9758 73.1233 32.182 73.1448 26.3882 73.1448C23.663 73.1448 22.6115 71.8573 23.1265 69.2179C24.3496 62.8233 25.5942 56.4072 26.8388 49.9911C27.1822 48.2744 27.6757 47.8238 29.4353 47.8238C30.1434 47.8238 30.6155 47.8023 30.7443 46.8796C30.8945 45.8496 31.8387 45.5706 32.7185 45.4204C32.7185 44.2188 32.6755 43.06 32.7399 41.9012C32.7614 41.4506 32.976 41 33.0833 40.5494C33.3193 39.6696 33.4695 38.7898 33.7699 37.9314C34.0274 37.1804 34.2635 36.2577 34.8214 35.7856C35.6797 35.056 36.1089 34.2191 36.4951 33.2106C37.2247 31.408 39.0273 30.4639 41.1087 30.5926C41.4521 30.6141 41.9241 30.5712 42.1602 30.378C44.9713 27.9961 47.0098 27.6957 50.25 29.2407C52.2242 27.8674 54.1126 27.8889 55.8292 29.7772C55.9795 29.9489 56.3442 29.9703 56.6232 29.9918C60.2282 30.3995 62.6101 32.2878 63.726 35.7427C63.8333 36.0431 64.1337 36.3864 64.4341 36.5366C66.1722 37.395 66.9233 38.7039 66.7516 40.5923C66.7087 41.1287 66.8589 41.6867 66.9662 42.2231C67.0735 42.7381 67.2666 43.2531 67.331 43.7896C67.4168 44.2831 67.3739 44.7981 67.3739 45.4419ZM32.461 47.4805C31.388 53.9824 30.2936 60.5058 29.1778 67.2223C35.8943 65.0549 42.4606 65.1193 49.0913 67.2008C49.0913 66.6 49.0913 66.2137 49.0913 65.806C49.0913 62.5872 49.0913 59.3685 49.0913 56.1497C49.0913 55.2055 49.6277 54.5832 50.1857 54.9265C50.5505 55.1411 50.8509 55.7634 50.8509 56.1926C50.9152 59.4543 50.8723 62.6945 50.8938 65.9562C50.8938 66.321 50.9367 66.7073 50.9582 67.2008C57.6103 65.0764 64.1337 65.0979 70.7 67.1579C70.7214 66.9218 70.7643 66.8145 70.7429 66.7287C69.7129 60.5916 68.7043 54.4759 67.6529 48.3388C67.5885 47.974 67.2452 47.6521 67.0306 47.3088C66.6872 47.6092 66.1722 47.8452 66.0435 48.21C65.507 49.9696 64.5414 51.4288 63.0822 52.5876C63.3397 53.2528 63.6187 53.8536 63.8118 54.4974C64.198 55.742 63.726 56.9866 62.6745 57.6947C61.6659 58.3599 60.3141 58.2097 59.2841 57.4586C58.254 56.7291 57.1597 56.0853 56.0224 55.5059C54.8636 54.9265 53.7049 54.3686 53.0396 53.1884C52.3959 52.0297 51.2157 51.7507 50.0998 52.4803C47.5463 54.1755 44.1558 53.682 42.3533 51.2142C41.8812 50.5919 41.4521 50.4846 40.7654 50.549C38.2118 50.7851 36.0231 49.9482 34.3922 47.9525C33.8128 47.2659 33.2978 47.0513 32.461 47.4805ZM38.0187 34.3908C38.8127 34.8843 39.5637 35.292 40.2289 35.807C40.7225 36.1933 40.9371 36.8585 40.3362 37.2662C40.0358 37.4593 39.3062 37.3306 38.9843 37.0731C37.9114 36.2791 36.9029 36.1933 36.1089 37.0302C35.3149 37.8671 35.4222 39.0044 36.4308 39.9271C36.8814 40.3562 37.1389 40.7854 36.7312 41.3219C36.3235 41.8583 35.8085 41.751 35.3149 41.3862C35.1862 41.3004 35.0145 41.236 34.8214 41.1502C34.0918 43.5106 34.4351 45.5492 36.1733 47.2444C37.5681 48.5748 39.2204 49.1113 41.2375 48.489C41.0229 48.1027 40.7654 47.7809 40.4435 47.6307C39.2848 47.1586 38.5766 46.3432 38.362 45.12C38.2547 44.4977 38.3191 43.9183 39.0273 43.7467C39.7354 43.5965 39.9929 44.0471 40.186 44.6908C40.3362 45.1844 40.7654 45.5921 41.1946 46.2144C41.4735 45.7209 41.5808 45.5277 41.6881 45.3561C41.9885 44.7552 42.2889 44.09 43.1044 44.4548C43.9198 44.8196 43.5979 45.4634 43.4048 46.1071C43.1902 46.8152 42.9971 47.5877 43.0829 48.2959C43.2331 49.798 44.1344 50.8709 45.5506 51.4074C47.0098 51.9653 48.3402 51.6434 49.5634 50.6778C49.9496 50.3773 50.5934 50.0555 51.0225 50.1628C52.5032 50.5705 53.9624 50.6348 55.4644 50.2915C55.8078 50.2057 56.2584 50.6563 56.6661 50.8494C56.4086 51.2571 56.194 51.7292 55.8507 52.0297C55.5932 52.2442 55.164 52.2228 54.5417 52.3944C55.1426 52.8451 55.5074 53.2099 55.9365 53.4245C57.5888 54.2399 59.4343 54.6905 60.7218 56.1711C60.872 56.3428 61.4728 56.3428 61.6874 56.1711C61.9449 55.978 62.181 55.5059 62.1166 55.2055C62.0307 54.6476 61.7303 54.1111 61.5157 53.5532C61.0866 53.682 60.8076 53.7678 60.5286 53.8322C59.8634 54.0253 59.0909 54.2399 58.8549 53.2957C58.6188 52.3515 59.3913 52.2442 60.078 52.0511C61.2797 51.7292 62.3312 51.1284 63.1251 49.9911C60.9578 50.1842 59.9707 49.9696 58.6618 49.24C58.2755 49.0255 57.739 48.8967 57.2884 48.9182C56.0438 49.004 55.0353 48.6178 54.2842 47.6307C53.9194 47.1371 53.6619 46.6007 54.2413 46.1071C54.8207 45.635 55.2928 45.8925 55.679 46.429C56.1297 47.0513 56.7305 47.3088 57.4601 46.944C58.1682 46.5792 58.3399 45.9569 58.0824 45.2059C57.8678 44.605 57.9751 44.1115 58.6188 43.9183C59.327 43.6823 59.7776 44.1329 59.8634 44.7552C59.9707 45.6779 59.8849 46.6007 59.8849 47.738C60.8934 48.4675 62.5457 48.4675 63.8762 47.5663C65.2924 46.6007 65.8504 45.0342 65.3568 43.1888C65.0993 43.296 64.8203 43.5106 64.5843 43.4677C64.2195 43.4033 63.726 43.2531 63.5543 42.9956C63.4255 42.781 63.5972 42.2875 63.7689 41.9656C63.8976 41.7296 64.241 41.6437 64.4341 41.4506C65.0135 40.8712 65.2066 40.1846 64.8847 39.3906C64.5628 38.6181 63.9835 38.1675 63.168 38.1889C62.7389 38.1889 62.3097 38.5323 61.8591 38.5537C61.4514 38.5752 60.8505 38.4893 60.7003 38.2318C60.5501 37.9529 60.7432 37.3735 60.9793 37.0516C61.2153 36.7298 61.6659 36.601 62.0093 36.3864C61.2368 33.747 59.1768 32.0303 56.8378 32.1162C56.4515 32.481 56.0009 32.9745 55.5932 32.9316C55.2928 32.9101 54.928 32.2235 54.7992 31.7728C54.4988 30.8287 53.8336 30.2064 52.8894 30.2064C51.9023 30.2064 51.2157 30.8072 51.0011 31.9016C50.8723 32.5239 50.7007 33.0818 49.9711 32.9745C49.1557 32.8887 49.0698 32.2235 49.22 31.5797C49.3917 30.8501 49.0054 30.6355 48.469 30.4424C46.1515 29.5841 43.7052 30.7428 42.7396 33.1891C42.5035 33.747 42.2889 34.2835 41.5379 34.1333C40.7868 33.9616 40.7654 33.4037 40.8941 32.7814C40.9156 32.6956 40.8298 32.6097 40.7868 32.5239C39.156 32.5668 38.5122 33.0389 38.0187 34.3908ZM69.7987 49.7551C69.8202 49.9696 69.8416 50.0984 69.8631 50.2486C70.7643 55.7205 71.6871 61.171 72.5669 66.6429C72.8673 68.4883 71.7514 69.3681 69.9275 68.896C68.4468 68.5098 66.9447 68.1235 65.4426 67.866C62.0307 67.3295 58.6188 67.351 55.164 68.0591C55.2713 69.175 55.3572 70.2264 55.443 71.2135C55.5717 71.2994 55.6147 71.3423 55.6361 71.3423C61.8162 71.3637 68.0177 71.3852 74.1977 71.3852C74.9917 71.3852 75.3565 70.9131 75.2062 70.0977C75.1633 69.8187 75.1204 69.5398 75.056 69.2608C74.2192 64.9477 73.3823 60.6345 72.5239 56.3213C72.0948 54.1326 71.6441 51.9438 71.2364 49.798C70.6571 49.7551 70.2493 49.7551 69.7987 49.7551ZM44.864 68.0377C39.7568 67.115 34.8643 67.4368 30.0147 68.896C28.2766 69.411 27.1607 68.4668 27.4182 66.6858C27.783 64.2181 28.2122 61.7503 28.6199 59.2826C29.1349 56.1282 29.6714 52.9738 30.2078 49.7551C29.6928 49.7551 29.2636 49.7551 28.7916 49.7551C28.7272 50.034 28.6413 50.2915 28.577 50.5705C27.3324 56.9222 26.1092 63.2524 24.8861 69.6041C24.6071 71.0633 24.8647 71.3637 26.3882 71.3637C32.0747 71.3637 37.7612 71.3637 43.4477 71.3637C43.791 71.3637 44.1344 71.3208 44.5421 71.3208C44.6494 70.205 44.7567 69.175 44.864 68.0377ZM46.6879 68.4454C46.5806 69.69 46.4519 70.7844 46.409 71.8787C46.409 72.1148 46.6879 72.4796 46.9025 72.5654C48.9411 73.3808 51.0225 73.3594 53.0611 72.5869C53.2971 72.501 53.619 72.1363 53.5976 71.9217C53.5546 70.8058 53.4259 69.69 53.2971 68.4239C52.0955 68.8102 51.044 69.411 50.014 69.3896C48.9411 69.411 47.8681 68.8102 46.6879 68.4454Z" fill="url(#paint1_linear_1_1062)"/>
<path d="M31.3439 37.1356C30.2495 36.6635 29.2624 36.2987 28.3612 35.8052C28.1251 35.6764 27.932 35.0541 28.0607 34.8181C28.211 34.5177 28.7689 34.1743 29.0264 34.2602C30.0135 34.5606 30.9791 34.9468 31.8804 35.4404C32.1164 35.5691 32.2451 36.2129 32.1379 36.5348C32.0735 36.8137 31.5799 36.9639 31.3439 37.1356Z" fill="url(#paint2_linear_1_1062)"/>
<path d="M71.1724 34.0886C71.4513 34.3246 71.9019 34.5392 71.9449 34.8182C72.0092 35.1615 71.8161 35.7409 71.5586 35.8696C70.7003 36.3417 69.7561 36.728 68.8334 37.0069C68.5544 37.0927 68.018 36.7923 67.8463 36.5134C67.7175 36.2988 67.8463 35.6336 68.0609 35.5048C69.005 34.9684 70.0351 34.5821 71.1724 34.0886Z" fill="url(#paint3_linear_1_1062)"/>
<path d="M43.3208 25.3147C43.0419 25.6151 42.8058 26.0228 42.5269 26.0658C42.2265 26.1301 41.6685 25.9585 41.5398 25.701C41.0677 24.7997 40.6815 23.8341 40.381 22.8684C40.2952 22.6109 40.5742 22.0745 40.8531 21.9457C41.1106 21.817 41.7544 21.9243 41.8617 22.1174C42.3981 23.1045 42.8058 24.156 43.3208 25.3147Z" fill="url(#paint4_linear_1_1062)"/>
<path d="M59.7569 22.74C59.2633 23.8773 58.8985 24.843 58.405 25.7442C58.2762 25.9803 57.6325 26.109 57.3106 26.0232C57.0746 25.9373 56.7956 25.358 56.86 25.1005C57.1604 24.1134 57.5681 23.1477 58.0402 22.2465C58.169 22.0104 58.7698 21.8388 59.0273 21.9461C59.3706 22.0319 59.5638 22.4825 59.7569 22.74Z" fill="url(#paint5_linear_1_1062)"/>
<path d="M64.4351 29.9896C64.3063 29.7965 63.8128 29.2385 63.8986 29.1527C64.4351 28.4875 65.1003 27.9081 65.7011 27.2858C65.9801 27.5862 66.4307 27.8437 66.5166 28.1871C66.6668 28.7665 65.3364 30.0111 64.4351 29.9896Z" fill="url(#paint6_linear_1_1062)"/>
<path d="M34.3941 26.858C35.1022 27.7807 35.6602 28.403 36.0893 29.1326C36.1322 29.2184 35.2524 29.9909 35.2095 29.948C34.5872 29.3901 33.9864 28.7893 33.4928 28.1026C33.407 28.0168 33.922 27.4803 34.3941 26.858Z" fill="url(#paint7_linear_1_1062)"/>
<path d="M51.1098 22.567C50.7451 22.9532 50.4232 23.597 50.0155 23.6613C49.1571 23.7686 49.0713 23.0176 49.0713 22.3309C49.0713 21.6872 49.1357 21.0219 49.9296 21.0005C50.8309 20.979 50.9382 21.6657 51.1098 22.567Z" fill="url(#paint8_linear_1_1062)"/>
<path d="M49.8853 45.0567C48.7909 44.37 47.9755 43.898 47.203 43.34C46.688 42.9752 46.4305 42.4173 46.9026 41.8594C47.3747 41.3015 47.8682 41.5161 48.3832 41.9238C50.808 43.898 53.4474 43.104 54.5847 40.1642C54.7349 39.7994 55.3358 39.3488 55.7006 39.3702C56.4087 39.4346 56.4945 40.0354 56.3229 40.6792C55.7864 42.5675 54.5847 43.8121 52.7822 44.5417C52.3101 44.7348 51.8166 45.0996 51.5376 45.5073C50.7008 46.7305 49.5849 47.4601 48.1257 47.6532C47.482 47.739 46.8597 47.6746 46.7524 46.8592C46.6666 46.1296 47.1816 45.958 47.8253 45.8078C48.4691 45.679 49.0914 45.3571 49.8853 45.0567Z" fill="url(#paint9_linear_1_1062)"/>
<path d="M42.8701 39.9055C42.956 37.5236 44.8014 35.7211 46.797 35.6352C47.3979 35.6138 47.9772 35.8284 47.9129 36.4721C47.8699 36.8369 47.3764 37.3734 47.0331 37.4163C45.6168 37.6309 44.8443 38.3819 44.6726 39.7767C44.5868 40.4205 44.2649 40.8711 43.6426 40.678C43.2564 40.5492 42.9989 40.0342 42.8701 39.9055Z" fill="url(#paint10_linear_1_1062)"/>
<defs>
<linearGradient id="paint0_linear_1_1062" x1="9" y1="7.5" x2="100" y2="100" gradientUnits="userSpaceOnUse">
<stop stop-color="#812595"/>
<stop offset="1" stop-color="#F17444"/>
</linearGradient>
<linearGradient id="paint1_linear_1_1062" x1="25.5" y1="31.3052" x2="76.4476" y2="90.1874" gradientUnits="userSpaceOnUse">
<stop stop-color="#812595"/>
<stop offset="1" stop-color="#F17444"/>
</linearGradient>
<linearGradient id="paint2_linear_1_1062" x1="28.2117" y1="34.434" x2="31.1966" y2="38.7227" gradientUnits="userSpaceOnUse">
<stop stop-color="#812595"/>
<stop offset="1" stop-color="#F17444"/>
</linearGradient>
<linearGradient id="paint3_linear_1_1062" x1="67.9874" y1="34.2787" x2="71.0325" y2="38.5938" gradientUnits="userSpaceOnUse">
<stop stop-color="#812595"/>
<stop offset="1" stop-color="#F17444"/>
</linearGradient>
<linearGradient id="paint4_linear_1_1062" x1="40.5019" y1="22.1611" x2="44.8489" y2="25.2232" gradientUnits="userSpaceOnUse">
<stop stop-color="#812595"/>
<stop offset="1" stop-color="#F17444"/>
</linearGradient>
<linearGradient id="paint5_linear_1_1062" x1="56.9849" y1="22.1815" x2="61.2708" y2="25.1885" gradientUnits="userSpaceOnUse">
<stop stop-color="#812595"/>
<stop offset="1" stop-color="#F17444"/>
</linearGradient>
<linearGradient id="paint6_linear_1_1062" x1="64.0107" y1="27.4611" x2="66.9892" y2="30.3645" gradientUnits="userSpaceOnUse">
<stop stop-color="#812595"/>
<stop offset="1" stop-color="#F17444"/>
</linearGradient>
<linearGradient id="paint7_linear_1_1062" x1="33.6039" y1="27.0584" x2="36.9609" y2="29.8855" gradientUnits="userSpaceOnUse">
<stop stop-color="#812595"/>
<stop offset="1" stop-color="#F17444"/>
</linearGradient>
<linearGradient id="paint8_linear_1_1062" x1="49.1655" y1="21.1732" x2="52.0037" y2="23.3358" gradientUnits="userSpaceOnUse">
<stop stop-color="#812595"/>
<stop offset="1" stop-color="#F17444"/>
</linearGradient>
<linearGradient id="paint9_linear_1_1062" x1="47.1048" y1="39.9082" x2="56.1514" y2="50.4981" gradientUnits="userSpaceOnUse">
<stop stop-color="#812595"/>
<stop offset="1" stop-color="#F17444"/>
</linearGradient>
<linearGradient id="paint10_linear_1_1062" x1="43.1035" y1="35.9637" x2="48.7109" y2="41.5173" gradientUnits="userSpaceOnUse">
<stop stop-color="#812595"/>
<stop offset="1" stop-color="#F17444"/>
</linearGradient>
</defs>
</svg>
