<svg width="55" height="60" viewBox="0 0 55 60" fill="none" xmlns="http://www.w3.org/2000/svg">
<path d="M5.53406 21.7834C6.1672 19.8605 6.42514 19.6729 8.55904 19.6729C10.435 19.6729 12.3109 19.6729 14.1869 19.6729C14.8435 19.6729 15.4297 19.8136 15.4297 20.564C15.4297 21.3378 14.7966 21.4551 14.1635 21.4551C11.9827 21.4551 9.80186 21.4551 7.55071 21.4551C7.55071 30.5534 7.55071 39.5346 7.55071 48.6798C9.26252 48.6798 10.9743 48.6798 12.6861 48.6798C13.0379 48.6798 13.4365 48.586 13.7414 48.7033C14.14 48.8674 14.4683 49.2192 14.82 49.5006C14.4448 49.8054 14.0931 50.3447 13.7179 50.3682C11.7013 50.462 9.68461 50.4151 7.52726 50.4151C7.52726 51.5172 7.52726 52.5255 7.52726 53.5339C7.52726 54.4015 8.18385 54.2608 8.69974 54.2608C12.733 54.2608 16.7429 54.2608 20.7762 54.2608C22.5583 54.2608 24.3639 54.2608 26.1461 54.2608C26.0523 52.1738 24.1529 50.5089 21.8314 50.4151C20.5886 50.3682 19.3223 50.462 18.0795 50.3682C17.6574 50.3213 17.0008 49.9227 16.9305 49.5709C16.7663 48.7736 17.4464 48.6564 18.0795 48.6564C19.3692 48.6564 20.6824 48.4922 21.9487 48.7033C23.426 48.9612 24.8564 49.5709 26.3572 50.0399C26.3572 49.8758 26.404 49.4771 26.404 49.055C26.404 45.9597 26.404 42.8878 26.404 39.7925C26.404 39.1594 26.404 38.4324 27.2717 38.409C28.1393 38.409 28.1628 39.089 28.1628 39.7691C28.1628 43.2865 28.1628 46.8039 28.1628 50.6261C30.578 48.164 33.5092 48.6564 36.3232 48.6564C39.4419 48.6329 42.5842 48.6564 45.7029 48.6564C46.125 48.6564 46.5471 48.6564 47.1099 48.6564C47.1099 48.1171 47.1099 47.695 47.1099 47.2963C47.1099 43.7086 47.1099 40.0974 47.1099 36.5096C47.1099 35.8765 47.0864 35.1495 47.9775 35.1495C48.8686 35.1495 48.8451 35.8765 48.8451 36.5096C48.8451 42.1844 48.8451 47.8357 48.8451 53.5104C48.8451 55.1988 48.001 56.0195 46.2892 56.0195C33.6265 56.0195 20.9638 56.0195 8.30109 56.0195C6.49549 56.0195 5.67476 55.1519 5.67476 53.2056C5.67476 43.8727 5.67476 34.5164 5.67476 25.1835C5.67476 24.7145 5.67476 24.269 5.67476 23.7297C4.38504 23.7297 3.18912 23.7297 1.87595 23.7297C1.8525 24.1518 1.80561 24.5504 1.80561 24.9725C1.80561 34.6336 1.80561 44.2714 1.80561 53.9325C1.80561 56.8871 3.14222 58.2472 6.09685 58.2472C20.2134 58.2472 34.3065 58.2472 48.4231 58.2472C51.2839 58.2472 52.644 56.8637 52.644 53.9794C52.644 44.2948 52.644 34.5867 52.644 24.9021C52.644 24.5269 52.5971 24.1518 52.5736 23.7062C51.3308 23.7062 50.1818 23.7062 48.8451 23.7062C48.8451 25.1132 48.8451 26.4967 48.8451 27.9037C48.8451 29.1465 48.8451 30.4127 48.8451 31.6556C48.8451 32.2887 48.9155 33.0391 48.0244 33.0391C47.0395 33.0625 47.1333 32.2653 47.1333 31.5852C47.1333 28.7009 47.1333 25.7932 47.1333 22.9089C47.1333 22.4868 47.1333 22.0648 47.1333 21.4316C46.1719 21.4316 45.2808 21.4316 44.4132 21.4316C43.0062 21.4316 41.5993 21.4785 40.1923 21.3847C39.8406 21.3613 39.5123 20.8454 39.1605 20.5405C39.4888 20.2357 39.8406 19.6964 40.1689 19.6964C42.4669 19.626 44.7884 19.626 47.0864 19.6729C48.3293 19.6964 48.8217 20.564 48.9155 21.8537C49.9707 21.8537 51.0259 21.8303 52.0577 21.8537C53.6992 21.8772 54.4027 22.5806 54.4027 24.2456C54.4027 34.2819 54.4261 44.3417 54.4027 54.3781C54.4027 57.6844 52.0812 59.9825 48.7748 59.9825C34.4003 60.0059 20.0024 60.0059 5.62786 59.9825C2.32149 59.9825 0 57.661 0 54.3781C0.0234494 44.3651 0.0234494 34.3053 0.0234494 24.269C0.0234494 22.6275 0.726932 21.9241 2.36839 21.8772C3.35327 21.8537 4.31469 21.8537 5.29957 21.8537C5.39337 21.8537 5.46372 21.8068 5.53406 21.7834ZM28.4207 54.2608C29.2414 54.2608 30.0622 54.2608 30.8594 54.2608C35.8542 54.2608 40.8723 54.2843 45.8671 54.2374C46.2892 54.2374 47.0161 53.9091 47.0395 53.6746C47.1802 52.6193 47.0864 51.5407 47.0864 50.4151C42.1386 50.4151 37.3549 50.3682 32.5947 50.4385C30.4139 50.462 28.6083 52.1738 28.4207 54.2608Z" fill="url(#paint0_linear_1_1103)"/>
<path d="M24.5274 29.1464C24.3632 26.309 24.1991 23.2841 24.0349 20.2591C21.479 20.1184 20.4237 19.3211 20.4472 17.281C20.4706 15.9444 21.6197 14.8423 22.9563 14.7954C24.5274 14.7485 25.3481 15.7099 25.7937 18.3362C26.5909 18.3362 27.4586 18.43 28.2793 18.2893C28.5372 18.2424 28.7952 17.5859 28.8655 17.1638C29.0766 15.9913 29.7801 15.1471 30.9291 14.8892C32.0312 14.6547 32.9223 15.0533 33.5789 15.9444C34.2354 16.8589 34.3527 18.2424 33.532 18.9694C32.7581 19.6729 31.6795 20.0246 30.4132 20.6812C30.2725 23.2841 30.0849 26.3559 29.9207 29.4278C30.6008 26.2621 33.0161 24.1282 34.4465 21.4785C35.0327 20.4232 35.7597 19.4384 36.3928 18.4066C38.7846 14.6078 38.6674 9.871 36.1114 6.28324C33.6023 2.78928 29.1938 1.05402 25.0667 1.96855C20.6113 2.95342 17.4222 6.30669 16.6249 10.809C16.578 11.0669 16.6015 11.4187 16.4608 11.6063C16.2263 11.8877 15.8276 12.3097 15.5463 12.2628C15.2649 12.2159 14.8428 11.7235 14.8428 11.4187C14.8428 10.6917 14.96 9.94135 15.1711 9.23787C16.7891 4.0321 20.283 0.866425 25.6764 0.139493C30.8118 -0.56399 35.0093 1.40576 37.8232 5.76735C40.7075 10.1993 40.6371 14.8423 37.8936 19.368C36.2286 22.1116 34.423 24.7614 32.7347 27.4581C32.4298 27.9505 32.336 28.5836 32.1484 29.1699C32.1015 29.3575 32.1484 29.6154 32.0546 29.7327C31.0229 30.9051 30.8822 32.3824 30.5304 33.8129C30.1552 35.3371 28.3965 35.8999 26.2626 35.5481C24.7853 35.2902 23.8239 34.2584 23.777 32.7342C23.7536 31.89 23.777 31.1396 22.9797 30.5768C22.7452 30.4127 22.5342 29.9437 22.5576 29.6623C22.6749 28.4429 21.9714 27.5988 21.3852 26.6842C19.8375 24.2455 18.2195 21.8771 16.7656 19.4384C16.0621 18.2424 15.5697 16.9058 15.1007 15.5927C14.9835 15.2878 15.4525 14.7719 15.6401 14.3733C15.9918 14.5843 16.6015 14.7485 16.6718 15.0299C17.3519 17.6328 19.0637 19.6729 20.4237 21.8771C21.2914 23.3075 22.2762 24.6676 23.1204 26.1214C23.6832 27.1063 24.0818 28.1615 24.5274 29.1464ZM28.1151 29.5451C28.3027 26.4028 28.4903 23.3075 28.6779 20.2122C27.6462 20.2122 26.7785 20.2122 25.8171 20.2122C26.0047 23.3544 26.1923 26.4263 26.3799 29.5451C26.9661 29.5451 27.482 29.5451 28.1151 29.5451ZM25.3012 31.4679C25.6061 32.2886 25.6764 33.297 26.1454 33.5549C26.7551 33.8832 27.8338 33.8832 28.4434 33.5315C28.9124 33.2735 28.9828 32.2886 29.2876 31.4679C27.8338 31.4679 26.7316 31.4679 25.3012 31.4679ZM23.9411 18.2659C23.8239 17.5155 24.0349 16.6479 22.9797 16.6713C22.7218 16.6713 22.2293 17.281 22.2528 17.5624C22.3466 18.5004 23.097 18.3362 23.9411 18.2659ZM30.5539 18.2424C31.3512 18.3362 32.1015 18.5004 32.1953 17.5624C32.2188 17.2576 31.7498 16.6479 31.4919 16.6479C30.4601 16.6479 30.6008 17.4686 30.5539 18.2424Z" fill="url(#paint1_linear_1_1103)"/>
<path d="M38.2228 42.6768C39.7001 42.6768 41.2008 42.6768 42.6782 42.6768C43.3347 42.6768 43.9679 42.8644 43.8272 43.6148C43.7568 43.9666 43.1002 44.4355 42.7016 44.4355C39.7001 44.5059 36.6751 44.5059 33.6736 44.4355C33.2515 44.4355 32.5246 43.9431 32.4542 43.5679C32.3135 42.841 32.9935 42.6534 33.6501 42.6534C35.1743 42.6768 36.6985 42.6768 38.2228 42.6768Z" fill="url(#paint2_linear_1_1103)"/>
<path d="M16.4386 42.6766C17.916 42.6766 19.3933 42.6766 20.894 42.6766C21.5272 42.6766 22.1369 42.7939 22.1134 43.5912C22.1134 44.3884 21.5037 44.4822 20.8706 44.4822C17.916 44.4822 14.9379 44.5291 11.9833 44.4353C11.5377 44.4353 10.7873 43.9664 10.717 43.6146C10.5997 42.8173 11.3032 42.6766 11.9833 42.6766C13.484 42.6766 14.9613 42.6766 16.4386 42.6766Z" fill="url(#paint3_linear_1_1103)"/>
<path d="M40.2858 31.3977C38.9258 31.3977 37.5657 31.4446 36.2056 31.3508C35.8304 31.3274 35.4787 30.8584 35.127 30.577C35.4787 30.2721 35.8304 29.6859 36.2056 29.6624C38.9258 29.5921 41.6459 29.5921 44.366 29.6624C44.7647 29.6624 45.1399 30.2018 45.515 30.5066C45.1399 30.788 44.7647 31.3039 44.366 31.3508C43.006 31.468 41.6459 31.3977 40.2858 31.3977Z" fill="url(#paint4_linear_1_1103)"/>
<path d="M14.3503 29.6388C15.6869 29.6388 17.0236 29.5684 18.3367 29.6857C18.7354 29.7091 19.1106 30.2485 19.4858 30.5533C19.0871 30.8347 18.7119 31.374 18.3133 31.374C15.6166 31.4444 12.9199 31.4444 10.2232 31.374C9.84804 31.374 9.47285 30.8113 9.09766 30.5299C9.47285 30.2485 9.84804 29.7326 10.2467 29.7091C11.6067 29.5684 12.9903 29.6388 14.3503 29.6388Z" fill="url(#paint5_linear_1_1103)"/>
<path d="M16.4146 35.8766C14.9373 35.8766 13.46 35.8766 11.9827 35.8766C11.3496 35.8766 10.7164 35.8062 10.693 35.0324C10.6695 34.1882 11.3496 34.1179 12.0296 34.1179C14.9842 34.1179 17.9623 34.1179 20.9169 34.1179C21.5501 34.1179 22.1597 34.2117 22.1363 35.0089C22.1128 35.8062 21.5032 35.8766 20.87 35.8531C19.3927 35.8766 17.8919 35.8766 16.4146 35.8766Z" fill="url(#paint6_linear_1_1103)"/>
<path d="M38.2471 35.8764C36.676 35.8764 35.1283 35.9468 33.5572 35.8295C33.1586 35.8061 32.7834 35.2902 32.3848 35.0088C32.76 34.7274 33.1586 34.1881 33.5338 34.1881C36.6057 34.1177 39.701 34.1412 42.7729 34.1646C43.3825 34.1646 43.9688 34.3757 43.8046 35.0792C43.7343 35.4074 43.1481 35.853 42.7729 35.8764C41.2955 35.9233 39.7713 35.8764 38.2471 35.8764Z" fill="url(#paint7_linear_1_1103)"/>
<path d="M16.415 38.409C17.9392 38.409 19.4635 38.3621 20.9642 38.4559C21.3629 38.4794 21.996 38.9249 22.0898 39.2766C22.2539 39.9567 21.6442 40.1677 21.0346 40.1677C17.9627 40.1677 14.8674 40.1912 11.7955 40.1208C11.4203 40.1208 11.0451 39.558 10.6699 39.2532C11.0686 38.9718 11.4438 38.4794 11.8658 38.4559C13.3666 38.3621 14.8908 38.409 16.415 38.409Z" fill="url(#paint8_linear_1_1103)"/>
<path d="M38.152 40.1444C36.6747 40.1444 35.1974 40.1444 33.6966 40.1444C33.087 40.1444 32.4304 40.0975 32.4069 39.3003C32.3835 38.5264 32.9697 38.3857 33.6263 38.3857C36.6278 38.3857 39.6293 38.3857 42.6309 38.3857C43.264 38.3857 43.8737 38.503 43.8502 39.2768C43.8268 40.0976 43.1937 40.121 42.584 40.121C41.1301 40.1679 39.6528 40.1444 38.152 40.1444Z" fill="url(#paint9_linear_1_1103)"/>
<path d="M45.5858 4.00868C45.4451 4.29007 45.3747 4.54802 45.234 4.68871C44.6009 5.27495 44.0147 5.90808 43.2877 6.37707C43.0063 6.56467 42.467 6.35362 42.0449 6.30672C42.0918 5.88463 41.998 5.3453 42.2091 5.08735C42.725 4.47767 43.3815 3.93833 44.0381 3.46934C44.2726 3.3052 44.7182 3.2583 44.9996 3.3521C45.2575 3.42244 45.3982 3.77419 45.5858 4.00868Z" fill="url(#paint10_linear_1_1103)"/>
<path d="M12.71 11.4655C12.6396 11.5827 12.5927 11.8172 12.4286 11.9579C11.7954 12.5441 11.1858 13.1538 10.4823 13.6228C10.2243 13.787 9.56775 13.7635 9.38016 13.5525C9.16911 13.3414 9.14566 12.6614 9.33326 12.4503C9.94294 11.7703 10.6464 11.1372 11.4203 10.5978C12.0065 10.1758 12.7334 10.6447 12.71 11.4655Z" fill="url(#paint11_linear_1_1103)"/>
<path d="M12.7084 5.69696C12.7084 6.44734 12.0284 6.89288 11.4656 6.51769C10.6683 5.97835 9.94138 5.29832 9.28479 4.59483C9.0972 4.40724 9.12065 3.7741 9.30824 3.56306C9.47239 3.35201 10.1055 3.21132 10.3166 3.35201C11.1138 3.9148 11.8173 4.59483 12.5208 5.25142C12.6615 5.36866 12.6615 5.60316 12.7084 5.69696Z" fill="url(#paint12_linear_1_1103)"/>
<path d="M45.5143 12.9664C45.5143 13.623 44.7873 14.1155 44.248 13.7403C43.4273 13.154 42.7003 12.4506 41.9968 11.7236C41.8562 11.5595 41.903 10.9967 42.0906 10.8091C42.2548 10.5981 42.841 10.4339 42.9817 10.5512C43.8493 11.2077 44.6232 11.9581 45.4205 12.685C45.5143 12.7319 45.4908 12.8961 45.5143 12.9664Z" fill="url(#paint13_linear_1_1103)"/>
<defs>
<linearGradient id="paint0_linear_1_1103" x1="2" y1="27.0395" x2="36.0256" y2="73.8053" gradientUnits="userSpaceOnUse">
<stop stop-color="#812595"/>
<stop offset="1" stop-color="#F17444"/>
</linearGradient>
<linearGradient id="paint1_linear_1_1103" x1="15.7663" y1="6.5357" x2="45.703" y2="28.046" gradientUnits="userSpaceOnUse">
<stop stop-color="#812595"/>
<stop offset="1" stop-color="#F17444"/>
</linearGradient>
<linearGradient id="paint2_linear_1_1103" x1="32.855" y1="42.9898" x2="33.3554" y2="46.1625" gradientUnits="userSpaceOnUse">
<stop stop-color="#812595"/>
<stop offset="1" stop-color="#F17444"/>
</linearGradient>
<linearGradient id="paint3_linear_1_1103" x1="11.1235" y1="43.0098" x2="11.6147" y2="46.1536" gradientUnits="userSpaceOnUse">
<stop stop-color="#812595"/>
<stop offset="1" stop-color="#F17444"/>
</linearGradient>
<linearGradient id="paint4_linear_1_1103" x1="35.5088" y1="29.9413" x2="36.0408" y2="33.0561" gradientUnits="userSpaceOnUse">
<stop stop-color="#812595"/>
<stop offset="1" stop-color="#F17444"/>
</linearGradient>
<linearGradient id="paint5_linear_1_1103" x1="9.47948" y1="29.9495" x2="10.0115" y2="33.0643" gradientUnits="userSpaceOnUse">
<stop stop-color="#812595"/>
<stop offset="1" stop-color="#F17444"/>
</linearGradient>
<linearGradient id="paint6_linear_1_1103" x1="11.113" y1="34.4403" x2="11.5724" y2="37.4877" gradientUnits="userSpaceOnUse">
<stop stop-color="#812595"/>
<stop offset="1" stop-color="#F17444"/>
</linearGradient>
<linearGradient id="paint7_linear_1_1103" x1="32.8055" y1="34.4631" x2="33.2635" y2="37.5064" gradientUnits="userSpaceOnUse">
<stop stop-color="#812595"/>
<stop offset="1" stop-color="#F17444"/>
</linearGradient>
<linearGradient id="paint8_linear_1_1103" x1="11.0907" y1="38.7225" x2="11.5579" y2="41.7956" gradientUnits="userSpaceOnUse">
<stop stop-color="#812595"/>
<stop offset="1" stop-color="#F17444"/>
</linearGradient>
<linearGradient id="paint9_linear_1_1103" x1="32.8269" y1="38.7092" x2="33.2893" y2="41.7663" gradientUnits="userSpaceOnUse">
<stop stop-color="#812595"/>
<stop offset="1" stop-color="#F17444"/>
</linearGradient>
<linearGradient id="paint10_linear_1_1103" x1="42.1751" y1="3.88164" x2="44.9396" y2="7.05051" gradientUnits="userSpaceOnUse">
<stop stop-color="#812595"/>
<stop offset="1" stop-color="#F17444"/>
</linearGradient>
<linearGradient id="paint11_linear_1_1103" x1="9.33486" y1="11.0431" x2="12.2408" y2="14.198" gradientUnits="userSpaceOnUse">
<stop stop-color="#812595"/>
<stop offset="1" stop-color="#F17444"/>
</linearGradient>
<linearGradient id="paint12_linear_1_1103" x1="9.28587" y1="3.91099" x2="12.2526" y2="7.11132" gradientUnits="userSpaceOnUse">
<stop stop-color="#812595"/>
<stop offset="1" stop-color="#F17444"/>
</linearGradient>
<linearGradient id="paint13_linear_1_1103" x1="42.0473" y1="11.1277" x2="45.0112" y2="14.3661" gradientUnits="userSpaceOnUse">
<stop stop-color="#812595"/>
<stop offset="1" stop-color="#F17444"/>
</linearGradient>
</defs>
</svg>
