<svg width="60" height="60" viewBox="0 0 60 60" fill="none" xmlns="http://www.w3.org/2000/svg">
<path d="M49.5431 26.8727C50.4092 28.1835 51.2284 29.4241 52.0477 30.6647C53.1244 32.3032 52.9138 33.4268 51.3221 34.5503C51.2986 34.5737 51.2518 34.5971 51.2284 34.6205C48.9813 35.6739 47.7173 37.2656 48.2791 39.9106C48.4429 40.6831 47.9748 41.1512 47.296 41.4321C46.8747 41.6194 46.4533 41.83 46.0086 42.0173C46.0788 42.1109 46.1256 42.2045 46.1724 42.2045C48.0216 42.5791 48.5834 43.7728 48.3259 45.5284C48.2323 46.1838 48.3259 46.8626 48.3025 47.518C48.1855 49.9524 46.3597 52.0356 43.9487 52.2697C42.0527 52.457 40.1333 52.3867 38.2139 52.3867C37.5117 52.3867 37.184 52.6208 36.9499 53.2762C36.2711 55.1488 35.5221 56.9746 34.8199 58.8472C34.539 59.6196 34.0942 60.2516 33.2048 59.9005C32.2451 59.5494 32.3153 58.7769 32.643 57.9577C33.3452 56.2021 34.024 54.3998 34.7965 52.4101C34.0006 52.4101 33.3686 52.4101 32.7366 52.4101C31.8471 52.3867 30.747 52.5272 30.7704 51.193C30.7938 49.9524 31.8237 50.046 32.6898 50.046C35.8966 50.046 39.08 50.046 42.2868 50.046C45.3532 50.046 46.9215 47.8691 45.9618 44.9432C45.8915 44.7091 45.5638 44.5219 45.3064 44.4048C44.4169 44.0303 43.4572 43.7728 42.5911 43.3281C42.1698 43.1174 41.725 42.5791 41.6782 42.1577C41.6548 41.8066 42.1932 41.4087 42.4975 41.0342C42.5677 40.9639 42.7081 40.9171 42.8018 40.8937C45.2361 40.2617 46.6172 38.9509 46.0554 36.1888C45.9852 35.7909 46.4767 35.1355 46.8747 34.8078C47.9748 33.9417 49.1452 33.1927 50.3858 32.35C48.9345 30.1497 47.5067 28.0899 46.1958 25.9364C45.7979 25.281 45.5873 24.4383 45.517 23.6659C45.3532 21.9806 45.3064 20.2718 45.2127 18.5631C45.1191 18.5631 45.0021 18.5397 44.9084 18.5397C44.651 19.1483 44.4403 19.7803 44.1594 20.3889C41.4676 26.3578 37.067 30.5711 31.0045 33.0289C27.2125 34.5503 24.8951 37.2422 24.2866 41.3151C24.1695 42.1109 24.2163 42.9536 24.2163 43.7728C24.2163 48.0564 21.384 51.4738 17.1707 52.2931C16.7494 52.3867 16.2344 52.8081 16.0472 53.2294C15.2045 55.0786 14.4789 56.9746 13.7298 58.8472C13.4255 59.5962 13.0042 60.2516 12.0913 59.9005C11.1316 59.526 11.2252 58.7535 11.5529 57.9577C12.3254 56.0851 13.0744 54.2125 13.8001 52.457C6.77785 48.5947 2.70497 42.6025 0.855784 35.0653C-1.04021 27.3877 0.247193 20.1314 4.3903 13.3901C4.57755 13.0858 4.74141 12.6644 4.99889 12.5474C5.44363 12.3602 6.12244 12.1729 6.45014 12.3836C6.75444 12.5942 6.84807 13.273 6.87148 13.7646C6.87148 14.0689 6.54377 14.3732 6.37992 14.6775C-0.595472 25.7258 1.74526 40.1213 11.8104 48.4543C13.8001 50.0928 15.9769 50.561 18.3177 49.414C20.6818 48.267 21.9692 46.3008 21.782 43.6792C21.4309 38.4828 24.31 33.0054 30.3725 30.6881C35.4519 28.7453 39.1736 25.1172 41.5846 20.2484C45.4936 12.3836 40.6483 3.65261 31.9174 2.59928C25.574 1.87365 19.6987 3.11424 14.2916 6.57853C13.566 7.04668 12.8169 7.35098 12.2786 6.4615C11.7402 5.59542 12.3488 5.03365 13.0744 4.5655C17.5452 1.7098 22.4374 0.164917 27.7508 0.0712872C31.6131 0.00106513 35.4753 -0.0457496 39.3375 0.0712872C45.9384 0.258546 50.7837 3.39513 53.3585 9.43423C55.9333 15.5436 54.7629 21.1847 50.2687 26.1003C50.0581 26.3343 49.824 26.5684 49.5431 26.8727ZM47.9748 24.8831C52.0711 21.6061 53.3585 15.1924 51.1816 10.2067C49.0047 5.26772 43.4338 1.78002 39.0098 2.50565C45.5873 8.3809 47.5769 16.2224 47.9748 24.8831Z" fill="url(#paint0_linear_1_1130)"/>
<path d="M56.7061 43.1642C56.0507 43.1642 55.3485 43.2813 54.7399 43.1174C54.3186 43.0004 53.71 42.462 53.71 42.1577C53.7334 41.713 54.2483 40.9873 54.5994 40.9405C56.0273 40.8001 57.4785 40.8001 58.9064 40.9171C59.2809 40.9639 59.8895 41.6662 59.8661 42.0641C59.8661 42.4386 59.2341 42.977 58.7894 43.1174C58.134 43.3047 57.4083 43.1876 56.7061 43.1642C56.7061 43.1642 56.7061 43.1876 56.7061 43.1642Z" fill="url(#paint1_linear_1_1130)"/>
<path d="M56.5657 49.6481C55.1847 49.1097 53.9441 48.6884 52.7737 48.0798C52.4929 47.9393 52.2822 47.1435 52.4226 46.7924C52.5631 46.4413 53.2419 46.0199 53.5462 46.0902C54.7634 46.4179 55.9805 46.886 57.1275 47.4478C57.4084 47.5882 57.5723 48.3373 57.502 48.7352C57.4318 49.0863 56.8934 49.3438 56.5657 49.6481Z" fill="url(#paint2_linear_1_1130)"/>
<path d="M53.3588 38.1785C53.0076 37.8508 52.4459 37.5465 52.3991 37.1953C52.3522 36.774 52.6097 36.0484 52.9608 35.8845C53.9908 35.3462 55.0909 34.9482 56.2145 34.6674C56.589 34.5737 57.2912 34.9482 57.4785 35.3228C57.6423 35.6036 57.4316 36.4697 57.1508 36.6102C56.0038 37.1953 54.7398 37.6167 53.3588 38.1785Z" fill="url(#paint3_linear_1_1130)"/>
<path d="M10.4992 9.45764C10.0544 9.76194 9.56287 10.3471 9.16495 10.2769C8.72021 10.2067 8.13502 9.59808 8.0648 9.15334C8.01799 8.84905 8.6968 8.14683 9.09472 8.10001C9.56287 8.07661 10.031 8.61498 10.4992 8.89586C10.4992 9.08312 10.4992 9.27038 10.4992 9.45764Z" fill="url(#paint4_linear_1_1130)"/>
<defs>
<linearGradient id="paint0_linear_1_1130" x1="2.28441" y1="1.5" x2="54.4623" y2="53.3043" gradientUnits="userSpaceOnUse">
<stop stop-color="#812595"/>
<stop offset="1" stop-color="#F17444"/>
</linearGradient>
<linearGradient id="paint1_linear_1_1130" x1="53.9671" y1="40.8918" x2="55.2816" y2="44.5798" gradientUnits="userSpaceOnUse">
<stop stop-color="#812595"/>
<stop offset="1" stop-color="#F17444"/>
</linearGradient>
<linearGradient id="paint2_linear_1_1130" x1="52.5926" y1="46.1716" x2="55.4028" y2="50.5832" gradientUnits="userSpaceOnUse">
<stop stop-color="#812595"/>
<stop offset="1" stop-color="#F17444"/>
</linearGradient>
<linearGradient id="paint3_linear_1_1130" x1="52.6083" y1="34.7409" x2="55.3731" y2="39.1324" gradientUnits="userSpaceOnUse">
<stop stop-color="#812595"/>
<stop offset="1" stop-color="#F17444"/>
</linearGradient>
<linearGradient id="paint4_linear_1_1130" x1="8.16425" y1="8.15386" x2="10.0275" y2="10.4183" gradientUnits="userSpaceOnUse">
<stop stop-color="#812595"/>
<stop offset="1" stop-color="#F17444"/>
</linearGradient>
</defs>
</svg>
